<?xml version="1.0" encoding="UTF-8"?>
<!DOCTYPE svg PUBLIC "-//W3C//DTD SVG 1.1//EN" "http://www.w3.org/Graphics/SVG/1.1/DTD/svg11.dtd">
<svg version="1.1" xmlns="http://www.w3.org/2000/svg" xmlns:xlink="http://www.w3.org/1999/xlink" x="0" y="0" width="54" height="54" viewBox="0, 0, 54, 54">
  <g id="Layer_1">
    <path d="M0,0 L0,54 L18.49,54 C18.828,54.036 19.167,53.933 19.427,53.714 C19.687,53.495 19.847,53.179 19.87,52.84 C19.94,50.97 19.87,49.09 19.87,47.27 C18.56,47.395 17.245,47.452 15.93,47.44 C13.217,47.484 10.767,45.825 9.8,43.29 C9.192,41.632 8.048,40.224 6.55,39.29 C6.259,39.101 5.999,38.868 5.78,38.6 C5.49,38.26 5.54,37.91 6.01,37.81 C6.478,37.697 6.963,37.673 7.44,37.74 C9.146,38.11 10.607,39.206 11.44,40.74 C13.007,43.624 16.584,44.737 19.51,43.25 C19.716,43.18 19.881,43.023 19.96,42.82 C20.187,41.481 20.799,40.237 21.72,39.24 C20.61,39.04 19.59,38.89 18.58,38.65 C15.695,38.137 13.08,36.63 11.19,34.39 C9.731,32.451 8.838,30.146 8.61,27.73 C8.1,23.92 8.56,20.36 11.17,17.32 C11.309,17.13 11.36,16.89 11.31,16.66 C10.693,14.576 10.727,12.353 11.41,10.29 C11.75,9.17 11.84,9.12 12.98,9.29 L13.18,9.29 C15.404,9.78 17.51,10.7 19.38,12 C19.656,12.175 19.987,12.242 20.31,12.19 C24.842,11.075 29.578,11.075 34.11,12.19 C34.42,12.228 34.733,12.161 35,12 C36,11.45 37,10.82 38.11,10.3 C39.319,9.652 40.668,9.309 42.04,9.3 C42.333,9.327 42.594,9.495 42.74,9.75 C43.614,11.924 43.737,14.328 43.09,16.58 C43.048,16.871 43.108,17.168 43.26,17.42 C44.032,18.569 44.701,19.784 45.26,21.05 C46.467,24.857 46.133,28.986 44.33,32.55 C42.74,35.94 39.78,37.65 36.33,38.55 C35.14,38.85 33.93,39.03 32.66,39.28 C34.33,41.02 34.59,43.15 34.56,45.38 C34.53,47.61 34.56,49.98 34.56,52.28 C34.56,53.39 35.04,54.01 35.89,54.05 L54,54.05 L54,0 z" fill="#FFFFFF"/>
  </g>
</svg>
