<svg id="Layer_1" data-name="Layer 1" xmlns="http://www.w3.org/2000/svg" viewBox="0 0 54 54"><defs><style>.cls-1{fill:#333132;}</style></defs><title>social-icon-instagram</title><path class="cls-1" d="M42.15,39.72V29.18c0-5.64-3-8.27-7-8.27a6.08,6.08,0,0,0-5.51,3v-2.6H23.5c.08,1.72,0,18.38,0,18.38h6.11V29.46a4.29,4.29,0,0,1,.2-1.5A3.35,3.35,0,0,1,33,25.73c2.21,0,3.09,1.69,3.09,4.16v9.83ZM17.06,18.83a3.19,3.19,0,1,0,0-6.35A3.18,3.18,0,1,0,17,18.83Zm3.06,20.89V21.34H14V39.72ZM0,0H54V54H0Z"/></svg>