<svg id="Layer_1" data-name="Layer 1" xmlns="http://www.w3.org/2000/svg" viewBox="0 0 72.76 72.76"><defs><style>.cls-1{fill:#fff;}</style></defs><title>icon-tech-github</title><rect class="cls-1" width="72.76" height="72.76"/><path d="M30.2,55.26H44.82c-.72,0-1.13-.55-1.13-1.49,0-1.94,0-3.88,0-5.82a6.77,6.77,0,0,0-1.6-5.15c1.08-.21,2.1-.36,3.09-.61,2.95-.75,5.44-2.19,6.79-5.05a12.87,12.87,0,0,0,.78-9.7,19.54,19.54,0,0,0-1.69-3.06,1,1,0,0,1-.15-.71,8.89,8.89,0,0,0-.29-5.76.78.78,0,0,0-.59-.38,7.27,7.27,0,0,0-3.32.87c-.9.44-1.74,1-2.62,1.43a1.18,1.18,0,0,1-.75.14,24.33,24.33,0,0,0-11.63,0,1.17,1.17,0,0,1-.79-.16,14.3,14.3,0,0,0-5.19-2.24l-.17,0c-1-.13-1-.08-1.32.86a8.87,8.87,0,0,0-.08,5.37.71.71,0,0,1-.13.56c-2.2,2.56-2.59,5.57-2.16,8.78a11.26,11.26,0,0,0,2.18,5.62,10.65,10.65,0,0,0,6.24,3.59c.84.2,1.71.33,2.64.5a5.85,5.85,0,0,0-1.48,3,.65.65,0,0,1-.38.36,5.12,5.12,0,0,1-6.81-2.12,5.07,5.07,0,0,0-3.39-2.51,3.11,3.11,0,0,0-1.21.06c-.39.08-.43.37-.19.66a2.85,2.85,0,0,0,.66.59,6.63,6.63,0,0,1,2.73,3.36,5.44,5.44,0,0,0,5.17,3.49,31.38,31.38,0,0,0,3.32-.14c0,1.53,0,3.12,0,4.7A1,1,0,0,1,30.2,55.26Z"/></svg>