<svg id="Layer_1" data-name="Layer 1" xmlns="http://www.w3.org/2000/svg" viewBox="0 0 72.76 72.76"><defs><style>.cls-1{fill:#fff;}.cls-2{fill-rule:evenodd;}</style></defs><title>icon-os-apple</title><rect class="cls-1" width="72.76" height="72.76"/><path class="cls-2" d="M42.71,21.8a9.15,9.15,0,0,0,2.21-6.86,9.19,9.19,0,0,0-6.73,3.73c-2.5,3.31-1.87,6.13-1.87,6.13S39.72,25.39,42.71,21.8Z"/><path class="cls-2" d="M48.08,37.67a9.31,9.31,0,0,1,4.64-8.13,9.57,9.57,0,0,0-8.4-4.29c-3.5,0-6.19,2-7.64,2-1.69,0-4.21-1.88-7.45-1.88-5,0-10.33,4.48-10.33,13,0,8.67,6.3,19.45,11.28,19.45,1.74,0,4.41-1.75,7.09-1.75s4.59,1.69,7.1,1.69c5.45,0,9.49-11.37,9.49-11.37A9.53,9.53,0,0,1,48.08,37.67Z"/></svg>