<svg id="Layer_1" data-name="Layer 1" xmlns="http://www.w3.org/2000/svg" viewBox="0 0 24.99 24.99"><title>social-twitter</title><path class="icon-path" d="M0,0V25H25V0ZM17.46,10c0,.11,0,.22,0,.33A7.29,7.29,0,0,1,6.25,16.42a4.08,4.08,0,0,0,.61,0A5.11,5.11,0,0,0,10,15.36a2.55,2.55,0,0,1-2.39-1.78,2.44,2.44,0,0,0,.48.05,3.09,3.09,0,0,0,.68-.09A2.57,2.57,0,0,1,6.75,11v0a2.55,2.55,0,0,0,1.16.32,2.56,2.56,0,0,1-.79-3.42,7.28,7.28,0,0,0,5.28,2.68,2.88,2.88,0,0,1-.07-.59,2.57,2.57,0,0,1,4.44-1.75,5.45,5.45,0,0,0,1.63-.62A2.55,2.55,0,0,1,17.27,9a4.85,4.85,0,0,0,1.47-.4A5.22,5.22,0,0,1,17.46,10Z"/></svg>