<svg id="Layer_1" data-name="Layer 1" xmlns="http://www.w3.org/2000/svg" viewBox="0 0 72.76 72.76"><defs><style>.cls-1{fill:#fff;}</style></defs><title>icon-tech-linux</title><rect class="cls-1" width="72.76" height="72.76"/><path d="M53.6,50.18a2.88,2.88,0,0,0-.71-.56l-.38-.22a5.6,5.6,0,0,1-.49-.3,3.1,3.1,0,0,1-.48-.43,2.57,2.57,0,0,1-.46-.65,4.55,4.55,0,0,1-.33-.92,5.64,5.64,0,0,1-.19-1.29,1.48,1.48,0,0,0-.35,1.08,3.68,3.68,0,0,0,.34,1.65,1.88,1.88,0,0,0,1.13,1.1,5.74,5.74,0,0,1,1.18.54,1.34,1.34,0,0,1,.57.65q.12.36-.42.78a6.42,6.42,0,0,1-1.76.84,14.43,14.43,0,0,0-2.36,1,15.26,15.26,0,0,0-2,1.52,3.22,3.22,0,0,1-1.94.8A1.86,1.86,0,0,1,43.24,55a2.87,2.87,0,0,1-.41-2.29,11,11,0,0,0,0-4.45A4.42,4.42,0,0,1,42.65,46c.13-.64.34-1,.63-1.12s.6.12.94.68c0,.08.1.23.2.45a2.93,2.93,0,0,0,.27.46,3.62,3.62,0,0,0,.31.36,1.1,1.1,0,0,0,.51.31,2.87,2.87,0,0,0,.72.11A2.58,2.58,0,0,0,47.62,47a2.77,2.77,0,0,0,.92-.76l.62-.81A1.09,1.09,0,0,1,49.7,45c.16,0,.32-.19.45-.5a4,4,0,0,0,.28-1.27,8.35,8.35,0,0,0-.12-1.92A19.5,19.5,0,0,0,49,36.91a12.77,12.77,0,0,0-2.28-3.72,12.73,12.73,0,0,1-3-5A14.67,14.67,0,0,1,43,23.33,7.18,7.18,0,0,0,42.29,20a6.54,6.54,0,0,0-2.09-2.77,5.88,5.88,0,0,0-2-1,8.32,8.32,0,0,0-2.42-.3,5.14,5.14,0,0,0-2.37.47A5.08,5.08,0,0,0,31,18.8a8.49,8.49,0,0,0-.55,3.46q.11,4.51.37,7.07A17.7,17.7,0,0,1,28,33.78,6.12,6.12,0,0,0,27.06,35a13.64,13.64,0,0,0-.69,1.39c-.16.42-.39,1-.67,1.78s-.48,1.33-.6,1.65a7.54,7.54,0,0,1-.5,1,5.73,5.73,0,0,0-.55,1.07A3.59,3.59,0,0,0,23.82,43a3.34,3.34,0,0,0,.05.87c.06.37.17.48.34.35.68-.52,1.54-.22,2.58.91a48.38,48.38,0,0,1,3.85,5.52c.16.26.31.54.46.83a6.1,6.1,0,0,1,.43,1.19A3.88,3.88,0,0,1,31.7,54a1.65,1.65,0,0,1-.52,1.1,2.45,2.45,0,0,1-1.47.64,3.61,3.61,0,0,1-1.27-.09c-.49-.11-1.12-.28-1.88-.53s-1.33-.41-1.69-.5c-.53-.12-1.29-.28-2.27-.47s-1.63-.33-1.93-.42c-.52-.14-.8-.33-.84-.59a2,2,0,0,1,.32-1.1A3.05,3.05,0,0,0,20.53,51a1.69,1.69,0,0,0,0-.5,2,2,0,0,0-.1-.39c0-.09-.1-.22-.2-.41a3.45,3.45,0,0,1-.18-.41c-.27-.64-.31-1.07-.11-1.3s.46-.27,1-.23a2.89,2.89,0,0,0,1.89-.34A1.92,1.92,0,0,0,23.52,45a2.06,2.06,0,0,1-.27,1.17,3.14,3.14,0,0,1-1,.79,3.06,3.06,0,0,1-1.37.28,2.32,2.32,0,0,0-1.3.32.84.84,0,0,0-.24.62,3,3,0,0,0,.1.83c.08.28.16.6.23,1a3.16,3.16,0,0,1,.09.91,6.16,6.16,0,0,1-.41,1.24,2.09,2.09,0,0,0-.16,1.52,1.18,1.18,0,0,0,.39.45,2.47,2.47,0,0,0,.76.33c.33.09.63.16.91.21s.65.13,1.14.21.87.16,1.16.22a22.23,22.23,0,0,1,3.33,1,10.28,10.28,0,0,0,2.54.7,2.49,2.49,0,0,0,1.22-.26,4.24,4.24,0,0,0,1-.65,4.1,4.1,0,0,1,1.22-.68,5,5,0,0,1,1.81-.34L36,54.72c.58,0,1,0,1.3,0,1.31,0,2.3,0,3,0a2.58,2.58,0,0,1,1.08.21,1,1,0,0,1,.5.45,2.83,2.83,0,0,0,.38.58,2,2,0,0,0,.67.54,4.11,4.11,0,0,0,2,.33,2.6,2.6,0,0,0,1.55-.45c.43-.41,1-.9,1.72-1.46a12.61,12.61,0,0,1,2-1.28l.61-.29.73-.36.72-.37a8,8,0,0,0,.69-.43,6.48,6.48,0,0,0,.53-.44,1.39,1.39,0,0,0,.36-.5,1.3,1.3,0,0,0,0-.52.92.92,0,0,0-.27-.54ZM41.37,28.12s.07,0,.09,0l.09.09a.79.79,0,0,1,.12.15,1.64,1.64,0,0,1,.16.18,1.74,1.74,0,0,0,.22.18,1,1,0,0,0,.33.13.7.7,0,0,1,.3.11.44.44,0,0,1,.15.26.66.66,0,0,1-.08.46.32.32,0,0,1-.33.18,1.72,1.72,0,0,1-.89-.72c-.32-.41-.38-.75-.16-1Zm-2.83-8.86a.72.72,0,0,0,.13-.24.48.48,0,0,0,0-.29.52.52,0,0,1,0-.3.3.3,0,0,1,.26-.17c.14,0,.32.12.55.34l.21.14a1.11,1.11,0,0,1,.21.16A.22.22,0,0,1,40,19a.3.3,0,0,1-.21.16,1.22,1.22,0,0,1-.34,0,.67.67,0,0,0-.21,0,1.36,1.36,0,0,0-.34.21l-.25.2a.13.13,0,0,1-.18,0c-.06-.09-.09-.15-.07-.19a.92.92,0,0,1,.14-.2Zm-11,17.08a2.71,2.71,0,0,0,.23-.3,1.31,1.31,0,0,0,.13-.31,1.22,1.22,0,0,1,.1-.28.1.1,0,0,1,.14-.07s.05,0,.06,0l0,.06v.07a.51.51,0,0,1,0,.09.17.17,0,0,1,0,.1.84.84,0,0,0,0,.14c0,.06,0,.11-.05.16a1.14,1.14,0,0,1-.29.41c-.13.12-.22.18-.28.16s-.08-.12,0-.27ZM42.42,50.42a17.83,17.83,0,0,1-.31,2c-.18.88-.29,1.47-.33,1.76-.32,0-.5-.14-.55-.36a1.49,1.49,0,0,1,.14-.85,10,10,0,0,0,.52-2.1c0-.7,0-1.1-.23-1.19s-.42.11-.77.68q-1,1.65-4,2c-1.83.24-3.09,0-3.79-.82a.43.43,0,0,0-.46-.06.59.59,0,0,0-.29.22s0,.07,0,.14l.22.27a1.67,1.67,0,0,1,.24.37c.59,1,.54,1.73-.16,2.1A6,6,0,0,0,32.49,53a4.2,4.2,0,0,0-.64-1.24,10,10,0,0,1-.66-1,1.44,1.44,0,0,0,1.36-1.51,1.31,1.31,0,0,0-.4-.87q-.21-.2-2.13-1.74a25.53,25.53,0,0,1-2.37-2.07c-.06-.06-.24-.21-.55-.45a2,2,0,0,1-.57-.64,4.16,4.16,0,0,1-.23-3.79l.1-.11c.07,0,.08.12,0,.41a4.58,4.58,0,0,0-.09,1.28,3.13,3.13,0,0,0,.82,2.14c.32.32.54.3.66-.07A3.5,3.5,0,0,0,27.94,42c0-.78,0-1.3,0-1.58a11.48,11.48,0,0,1,1.09-3.22c.6-1.28,1.07-2,1.42-2.05a2,2,0,0,1-.26-1.44,4,4,0,0,1,.48-1.32c.22-.37.44-.79.67-1.27a3,3,0,0,0,.34-1.29.67.67,0,0,1,0-.23q.06-.2.57.51a5.76,5.76,0,0,0,1.43,1.66,1.17,1.17,0,0,0,1.12,0,10,10,0,0,0,1.52-1,10.41,10.41,0,0,1,1.54-1,1.2,1.2,0,0,0,.22-.1l.22-.11.21-.11.19-.11a.71.71,0,0,0,.14-.1.24.24,0,0,0,.09-.12.18.18,0,0,0,0-.1.29.29,0,0,0-.19-.25.62.62,0,0,0-.4.06c-.17.07-.35.16-.56.27l-.68.39c-.25.14-.51.28-.77.4a6.65,6.65,0,0,1-.82.32,3.7,3.7,0,0,1-.82.16,2.11,2.11,0,0,1-1.53-.5,2,2,0,0,1-.39-.44c0-.06.06-.07.21,0a6.17,6.17,0,0,0,1.8,0,6.85,6.85,0,0,0,1.6-.52l1-.45A13.6,13.6,0,0,1,38.79,28a.61.61,0,0,0,.38-.22.31.31,0,0,0,.06-.27.29.29,0,0,0-.15-.19q-.24-.13-.45.18a1.18,1.18,0,0,1-.48.4,4.67,4.67,0,0,1-.67.3l-.79.23-.53.16a6.86,6.86,0,0,1-2.32.35,2.66,2.66,0,0,1-.81-.15.86.86,0,0,1-.43-.3,2.7,2.7,0,0,0-.36-.43,2.76,2.76,0,0,0-.57-.45.33.33,0,0,1-.17-.41,1.21,1.21,0,0,1,.35-.61l.47-.29a1.83,1.83,0,0,0,.63-.54,2.5,2.5,0,0,1,.7-.66,2.84,2.84,0,0,0,0-.5,2.11,2.11,0,0,0-.22-.89.69.69,0,0,0-.62-.48.82.82,0,0,0-.77.32,1.44,1.44,0,0,0-.21.85,1.73,1.73,0,0,0,.22.76c.13.22.25.33.35.33s.22.05.16.18a.59.59,0,0,1-.36.32c-.11,0-.23-.07-.36-.31a3.38,3.38,0,0,1-.29-.85,3,3,0,0,1-.08-.85,3.41,3.41,0,0,1,.37-1.35,1,1,0,0,1,.95-.63,1.2,1.2,0,0,1,1,.78,4.26,4.26,0,0,1,.36,2.05c.05.11.17.14.36.11a3.59,3.59,0,0,1,.75,0,1,1,0,0,1,.67.24s0-.11,0-.34c-.28-1.92.4-2.94,2-3.06a3.26,3.26,0,0,1,.61.17,2.07,2.07,0,0,1,.54.34,1.88,1.88,0,0,1,.48.7A5.46,5.46,0,0,1,40,24.08v.85c0,.48-.1.76-.3.82s-.55.1-.68,0-.13-.32,0-.61A1.72,1.72,0,0,0,39,23.81a1.06,1.06,0,0,0-1.16-.69.91.91,0,0,0-.83.62,2.38,2.38,0,0,0-.18,1.16c.05.38.13.58.25.6a4.19,4.19,0,0,1,.81.36,4.14,4.14,0,0,0,1,.41c.59.12.93.31,1,.57a2,2,0,0,1-.1,1.13,2.51,2.51,0,0,0-.13,1.22,2.61,2.61,0,0,0,.34.92,7.14,7.14,0,0,0,.53.75,5.37,5.37,0,0,1,.68,1.28,14,14,0,0,1,.7,2.35l.17.16a2.07,2.07,0,0,1,.3.34c.1.14.22.32.36.56a6.72,6.72,0,0,1,.44,1,15.34,15.34,0,0,1,.45,1.57,11.63,11.63,0,0,1,.26,2.44,7.55,7.55,0,0,0,.18,1.91c.12.34.41.48.88.42a1.17,1.17,0,0,0,1.14-1c.5-1.76.09-3.88-1.23-6.34a6.55,6.55,0,0,0-1.3-1.89,5.29,5.29,0,0,1,1.64,1.71,6.72,6.72,0,0,1,1.07,2.35c0,.07.06.27.13.6s.11.52.11.57l.09.47a2.68,2.68,0,0,1,.08.5q0,.12,0,.45a2.66,2.66,0,0,1,0,.51,3.8,3.8,0,0,0-.07.49,3.62,3.62,0,0,1-.12.59l-.17.63q1.26.55,1.26,1a3.17,3.17,0,0,0-3-.27,1.29,1.29,0,0,0-.79,1.21,1.42,1.42,0,0,0-1.16.41,2.48,2.48,0,0,0-.52,1.61,11.73,11.73,0,0,0,.17,2.21,7.76,7.76,0,0,1,.15,1.68ZM32.85,24a.24.24,0,0,1-.11-.14c0-.14.07-.19.21-.16s.18.15.26.34a1.21,1.21,0,0,1,0,.69s0,.07-.06.07-.23-.16-.19-.46,0-.34-.16-.34Zm5.92.36-.05.07c-.12.08-.18.09-.18.05-.06-.41-.2-.65-.41-.71l-.09,0c-.11-.09-.06-.14.16-.16a.29.29,0,0,1,.2.07,1,1,0,0,1,.37.73Zm0,0"/><path d="M33.45,25.66c0,.09,0,.13.11.11s.13-.07.2-.22a.4.4,0,0,1,.35-.24h-.23c-.29.05-.43.16-.43.35Zm0,0"/><path d="M35.43,25.38a.37.37,0,0,1,.4.11c.12.11.2.16.27.14a.13.13,0,0,0,.06-.2c-.12-.2-.36-.22-.73-.05Zm0,0"/></svg>