<svg id="Layer_1" data-name="Layer 1" xmlns="http://www.w3.org/2000/svg" viewBox="0 0 54 54"><defs><style>.cls-1{fill:#333132;}</style></defs><title>icon-social-github</title><path class="cls-1" d="M0,0V54H18.49a1.25,1.25,0,0,0,1.38-1.16c.07-1.87,0-3.75,0-5.57a38,38,0,0,1-3.94.17,6.45,6.45,0,0,1-6.13-4.15,7.93,7.93,0,0,0-3.25-4,3.35,3.35,0,0,1-.77-.69c-.29-.34-.24-.69.23-.79a3.83,3.83,0,0,1,1.43-.07,6,6,0,0,1,4,3,6.06,6.06,0,0,0,8.07,2.51.74.74,0,0,0,.45-.43,7,7,0,0,1,1.76-3.58c-1.11-.2-2.13-.35-3.14-.59a12.54,12.54,0,0,1-7.39-4.26,13.13,13.13,0,0,1-2.58-6.66c-.51-3.81-.05-7.37,2.56-10.41a.82.82,0,0,0,.14-.66,10.65,10.65,0,0,1,.1-6.37c.34-1.12.43-1.17,1.57-1l.2,0A17.43,17.43,0,0,1,19.38,12a1.34,1.34,0,0,0,.93.19,28.88,28.88,0,0,1,13.8,0A1.39,1.39,0,0,0,35,12c1-.55,2-1.18,3.11-1.7a8.43,8.43,0,0,1,3.93-1,.9.9,0,0,1,.7.45,10.52,10.52,0,0,1,.35,6.83,1.28,1.28,0,0,0,.17.84,23.58,23.58,0,0,1,2,3.63,15.26,15.26,0,0,1-.93,11.5c-1.59,3.39-4.55,5.1-8,6-1.19.3-2.4.48-3.67.73,1.67,1.74,1.93,3.87,1.9,6.1s0,4.6,0,6.9c0,1.11.48,1.73,1.33,1.77H54V0Z"/></svg>