<svg id="Layer_1" data-name="Layer 1" xmlns="http://www.w3.org/2000/svg" viewBox="0 0 28.31 23.68"><defs><style>.cls-1{fill:#68808a;}</style></defs><title>icon-social-twitter-grey</title><path class="cls-1" d="M28.31,3.06A11.4,11.4,0,0,1,25,4,5.75,5.75,0,0,0,27.52.76a11.48,11.48,0,0,1-3.68,1.41,5.82,5.82,0,0,0-9.9,5.3A16.5,16.5,0,0,1,2,1.4a5.81,5.81,0,0,0,1.8,7.76,5.94,5.94,0,0,1-2.63-.73V8.5A5.8,5.8,0,0,0,5.8,14.19a6,6,0,0,1-1.53.21,5.7,5.7,0,0,1-1.1-.11,5.82,5.82,0,0,0,5.43,4,11.66,11.66,0,0,1-7.22,2.48A10.54,10.54,0,0,1,0,20.73a16.41,16.41,0,0,0,8.9,2.61c10.68,0,16.52-8.85,16.52-16.52,0-.26,0-.5,0-.75a12,12,0,0,0,2.9-3"/></svg>